<svg xmlns="http://www.w3.org/2000/svg" viewBox="0 0 57.03718 87.39781"><polygon points="56.537 31.931 17.558 46.056 7.615 18.616 46.594 4.491 47.617 19.472 56.537 31.931" style="fill:#ea80fc"/><polygon points="56.537 31.931 11.89 48.11 0.5 16.679 45.147 0.5 46.32 17.66 56.537 31.931" style="fill:none;stroke:#212121;stroke-linecap:round;stroke-linejoin:round"/><polygon points="56.537 31.931 11.89 48.11 0.5 16.679 45.147 0.5 46.32 17.66 56.537 31.931" style="fill:#fff"/><polygon points="56.537 31.931 17.558 46.056 7.615 18.616 46.594 4.491 47.617 19.472 56.537 31.931" style="fill:#ea80fc"/><polygon points="56.537 31.931 11.89 48.11 0.5 16.679 45.147 0.5 46.32 17.66 56.537 31.931" style="fill:none;stroke:#212121;stroke-linecap:round;stroke-linejoin:round"/><line x1="11.88975" y1="48.10994" x2="25.94552" y2="86.89781" style="fill:none;stroke:#212121;stroke-linecap:round;stroke-linejoin:round"/></svg>