<svg xmlns="http://www.w3.org/2000/svg" viewBox="0 0 109.07277 109.07277"><circle cx="54.6002" cy="54.53637" r="54.03638" style="fill:#fff"/><circle cx="57.22695" cy="57.16313" r="51.40962" style="fill:#a7ffeb"/><circle cx="54.53636" cy="54.53638" r="9.07415" style="fill:none;stroke:#212121;stroke-linecap:round;stroke-linejoin:round"/><circle cx="54.53638" cy="54.53638" r="24.52383" style="fill:none;stroke:#212121;stroke-linecap:round;stroke-linejoin:round"/><circle cx="54.53638" cy="54.53638" r="39.07191" style="fill:none;stroke:#212121;stroke-linecap:round;stroke-linejoin:round"/><circle cx="54.53638" cy="54.53638" r="54.03638" style="fill:none;stroke:#212121;stroke-linecap:round;stroke-linejoin:round"/><polygon points="82.522 54.536 97.745 54.536 97.745 59.08 86.629 59.08 82.522 54.536" style="fill:#ff9792"/><polygon points="82.522 54.536 97.745 54.536 97.745 49.992 86.629 49.992 82.522 54.536" style="fill:#ff9792"/><line x1="54.53638" y1="54.53638" x2="97.74469" y2="54.53638" style="fill:none;stroke:#212121;stroke-linecap:round;stroke-linejoin:round"/><polygon points="77.776 38.944 90.417 30.462 92.948 34.235 83.718 40.428 77.776 38.944" style="fill:#ff9792"/><polygon points="77.776 38.943 90.417 30.462 87.885 26.688 78.654 32.882 77.776 38.943" style="fill:#ff9792"/><line x1="54.53638" y1="54.53637" x2="90.4164" y2="30.46186" style="fill:none;stroke:#212121;stroke-linecap:round;stroke-linejoin:round"/></svg>