<svg xmlns="http://www.w3.org/2000/svg" viewBox="0 0 22.50466 69.02924"><path d="M10.49272,17.26713h0a8,8,0,0,1,8,8V55.72871a4,4,0,0,1-4,4h-8a4,4,0,0,1-4-4V25.26706a7.99992,7.99992,0,0,1,7.99992-7.99992Z" transform="translate(4.58642 -0.96476) rotate(6.73365)" style="fill:#fff"/><path d="M11.90716,18.60482h.321a6.18589,6.18589,0,0,1,6.18589,6.18589v32.035a3.09293,3.09293,0,0,1-3.09293,3.09293H8.81423A3.09293,3.09293,0,0,1,5.7213,56.8257v-32.035A6.18586,6.18586,0,0,1,11.90716,18.60482Z" transform="translate(4.68684 -1.14416) rotate(6.73365)" style="fill:#ffff8d"/><path d="M10.49272,17.26713h0a8,8,0,0,1,8,8V55.72871a4,4,0,0,1-4,4h-8a4,4,0,0,1-4-4V25.26706a7.99992,7.99992,0,0,1,7.99992-7.99992Z" transform="translate(4.58642 -0.96476) rotate(6.73365)" style="fill:none;stroke:#212121;stroke-linecap:round;stroke-linejoin:round"/><rect x="1.91354" y="59.57182" width="11.82523" height="3.02401" transform="matrix(0.9931, 0.11725, -0.11725, 0.9931, 7.21631, -0.49629)" style="fill:none;stroke:#212121;stroke-linecap:round;stroke-linejoin:round"/><rect x="3.41285" y="62.57497" width="8.11748" height="3.02401" transform="translate(7.566 -0.434) rotate(6.73365)" style="fill:none;stroke:#212121;stroke-linecap:round;stroke-linejoin:round"/><rect x="4.36623" y="65.57946" width="5.54734" height="2.63363" transform="translate(7.89311 -0.37573) rotate(6.73365)" style="fill:none;stroke:#212121;stroke-linecap:round;stroke-linejoin:round"/><line x1="6.97135" y1="59.46039" x2="8.27043" y2="32.73661" style="fill:none;stroke:#212121;stroke-linecap:round;stroke-linejoin:round"/><line x1="9.03554" y1="59.70411" x2="13.99577" y2="33.41259" style="fill:none;stroke:#212121;stroke-linecap:round;stroke-linejoin:round"/><line x1="7.97454" y1="37.87293" x2="13.08734" y2="38.47659" style="fill:none;stroke:#212121;stroke-linecap:round;stroke-linejoin:round"/><path d="M11.6451,17.36086a2.18479,2.18479,0,0,0,1.56077-1.84224,2.18477,2.18477,0,0,0,1.08881,2.15506" style="fill:none;stroke:#212121;stroke-linecap:round;stroke-linejoin:round"/><line x1="13.65976" y1="11.67426" x2="14.97906" y2="0.5" style="fill:none;stroke:#212121;stroke-linecap:round;stroke-linejoin:round"/><line x1="17.25146" y1="12.51009" x2="19.62806" y2="9.13791" style="fill:none;stroke:#212121;stroke-linecap:round;stroke-linejoin:round"/><line x1="20.81636" y1="7.45182" x2="22.00466" y2="5.76573" style="fill:none;stroke:#212121;stroke-linecap:round;stroke-linejoin:round"/><line x1="9.97216" y1="11.65064" x2="8.44624" y2="7.81769" style="fill:none;stroke:#212121;stroke-linecap:round;stroke-linejoin:round"/><line x1="7.68328" y1="5.90122" x2="6.92032" y2="3.98475" style="fill:none;stroke:#212121;stroke-linecap:round;stroke-linejoin:round"/></svg>