<svg xmlns="http://www.w3.org/2000/svg" viewBox="0 0 83.99582 90.29216"><path d="M61.79086,29.133H78.21747A3.93813,3.93813,0,0,1,82.1556,33.0711v0a3.93813,3.93813,0,0,1-3.93813,3.93813H57.85273a0,0,0,0,1,0,0V33.0711A3.93813,3.93813,0,0,1,61.79086,29.133Z" style="fill:#ffcdd2"/><path d="M61.79088,37.00942H76.061a3.93811,3.93811,0,0,1,3.93811,3.93811v0a3.93815,3.93815,0,0,1-3.93815,3.93815H57.85273a0,0,0,0,1,0,0V40.94757A3.93815,3.93815,0,0,1,61.79088,37.00942Z" style="fill:#ffcdd2"/><path d="M61.79086,44.88561H73.98852a3.93812,3.93812,0,0,1,3.93812,3.93812v0a3.93814,3.93814,0,0,1-3.93814,3.93814H57.85273a0,0,0,0,1,0,0V48.82374A3.93813,3.93813,0,0,1,61.79086,44.88561Z" style="fill:#ffcdd2"/><path d="M81.00746,28.89694A3.72335,3.72335,0,0,0,77.295,25.18449l-13.08523.00007v-.00007h-9.109V9.67614a4.07082,4.07082,0,0,0-4.05894-4.05881H46.69429V42.13087L5.25652,76.27131,23.44119,88.25605,64.20978,52.762l-.19686.586,8.83162-.58619c2.04186,0,2.91291.45159,2.91291-1.59027a3.72333,3.72333,0,0,0-3.71121-3.71232h1.95248a3.71245,3.71245,0,0,0,0-7.42489l-9.78894.00006v-.00013l11.82188-.00012a3.71239,3.71239,0,0,0,.00112-7.42477H77.295A3.72334,3.72334,0,0,0,81.00746,28.89694Z" style="fill:#ffcdd2"/><path d="M64.20948,21.25678H79.55771a3.93811,3.93811,0,0,1,3.93811,3.93811v0a3.93815,3.93815,0,0,1-3.93815,3.93815H60.27134a0,0,0,0,1,0,0V25.19493A3.93815,3.93815,0,0,1,64.20948,21.25678Z" style="fill:none;stroke:#212121;stroke-linecap:round;stroke-linejoin:round"/><path d="M61.79086,29.133H78.21747A3.93813,3.93813,0,0,1,82.1556,33.0711v0a3.93813,3.93813,0,0,1-3.93813,3.93813H57.85273a0,0,0,0,1,0,0V33.0711A3.93813,3.93813,0,0,1,61.79086,29.133Z" style="fill:none;stroke:#212121;stroke-linecap:round;stroke-linejoin:round"/><line x1="64.20978" y1="21.25687" x2="53.37445" y2="21.25687" style="fill:none;stroke:#212121;stroke-linecap:round;stroke-linejoin:round"/><path d="M44.45694,42.86608V.5h4.612a4.31822,4.31822,0,0,1,4.30556,4.30557V23.62494" style="fill:none;stroke:#212121;stroke-linecap:round;stroke-linejoin:round"/><path d="M61.79088,37.00942H76.061a3.93811,3.93811,0,0,1,3.93811,3.93811v0a3.93815,3.93815,0,0,1-3.93815,3.93815H57.85273a0,0,0,0,1,0,0V40.94757A3.93815,3.93815,0,0,1,61.79088,37.00942Z" style="fill:none;stroke:#212121;stroke-linecap:round;stroke-linejoin:round"/><path d="M61.79086,44.88561H73.98852a3.93812,3.93812,0,0,1,3.93812,3.93812v0a3.93814,3.93814,0,0,1-3.93814,3.93814H57.85273a0,0,0,0,1,0,0V48.82374A3.93813,3.93813,0,0,1,61.79086,44.88561Z" style="fill:none;stroke:#212121;stroke-linecap:round;stroke-linejoin:round"/><line x1="64.93449" y1="52.90131" x2="21.68738" y2="89.79216" style="fill:none;stroke:#212121;stroke-linecap:round;stroke-linejoin:round"/><line x1="44.45694" y1="39.23338" x2="0.5" y2="75.44933" style="fill:none;stroke:#212121;stroke-linecap:round;stroke-linejoin:round"/></svg>