<svg xmlns="http://www.w3.org/2000/svg" viewBox="0 0 46.83727 46.47877"><path d="M6.52556,14.36813A12.37614,12.37614,0,0,0,.82419,22.333a13.61707,13.61707,0,0,0,9.62308,16.02179l27.696,7.58267a1.34054,1.34054,0,0,0,1.6029-.96508q3.14227-14.00439,6.26766-28.008A13.61139,13.61139,0,0,0,36.37372.95293a12.36814,12.36814,0,0,0-15.42549,9.28736l-.88085,3.84142-3.81751-1.03613A12.2212,12.2212,0,0,0,6.52569,14.3681Z" style="fill:#fff"/><path d="M12.655,20.27a10.05064,10.05064,0,0,0-4.63007,6.46826A11.0584,11.0584,0,0,0,15.8398,39.74955l22.49193,6.15789a1.08864,1.08864,0,0,0,1.30171-.78374q2.55185-11.373,5.09-22.74527a11.0538,11.0538,0,0,0-7.82876-13.0029,10.04415,10.04415,0,0,0-12.527,7.54226l-.71533,3.11962-3.1002-.84145a9.92488,9.92488,0,0,0-7.897,1.074Z" style="fill:#ff9792"/><path d="M6.52556,14.36813A12.37614,12.37614,0,0,0,.82419,22.333a13.61707,13.61707,0,0,0,9.62308,16.02179l27.696,7.58267a1.34054,1.34054,0,0,0,1.6029-.96508q3.14227-14.00439,6.26766-28.008A13.61139,13.61139,0,0,0,36.37372.95293a12.36814,12.36814,0,0,0-15.42549,9.28736l-.88085,3.84142-3.81751-1.03613A12.2212,12.2212,0,0,0,6.52569,14.3681Z" style="fill:none;stroke:#212121;stroke-linecap:round;stroke-linejoin:round"/><path d="M6.52556,14.36813A12.37614,12.37614,0,0,0,.82419,22.333a13.61707,13.61707,0,0,0,9.62308,16.02179l27.696,7.58267a1.34054,1.34054,0,0,0,1.6029-.96508q3.14227-14.00439,6.26766-28.008A13.61139,13.61139,0,0,0,36.37372.95293a12.36814,12.36814,0,0,0-15.42549,9.28736l-.88085,3.84142-3.81751-1.03613A12.2212,12.2212,0,0,0,6.52569,14.3681Z" style="fill:none;stroke:#212121;stroke-linecap:round;stroke-linejoin:round"/><line x1="24.48961" y1="16.82527" x2="32.56421" y2="19.01267" style="fill:#ff9792"/></svg>