<?xml version="1.0" encoding="utf-8"?>
<!-- Generator: Adobe Illustrator 24.1.0, SVG Export Plug-In . SVG Version: 6.00 Build 0)  -->
<svg version="1.1" id="Layer_1" xmlns="http://www.w3.org/2000/svg" xmlns:xlink="http://www.w3.org/1999/xlink" x="0px" y="0px"
	 viewBox="0 0 46.4 19.1" style="enable-background:new 0 0 46.4 19.1;" xml:space="preserve">
<style type="text/css">
	.st0{fill:#FFFFFF;}
	.st1{fill:none;stroke:#212121;stroke-width:1.3126;stroke-linecap:round;stroke-linejoin:round;}
</style>
<circle class="st0" cx="36.9" cy="9.5" r="9.5"/>
<path class="st1" d="M5.7,0.9c-1.3,0-2.6,0.6-3.6,1.5c-2,2.1-2,5.3,0,7.4L10,18c0.2,0.2,0.5,0.2,0.7,0c2.6-2.7,5.2-5.5,7.8-8.2
	c2-2.1,2-5.3,0-7.4c-1.9-2-4.9-2.1-6.9-0.2c-0.1,0.1-0.1,0.1-0.2,0.2l-1.1,1.1L9.2,2.4C8.3,1.4,7,0.9,5.7,0.9L5.7,0.9z"/>
<line class="st1" x1="9.2" y1="2.4" x2="12.1" y2="5.4"/>
</svg>
